HIERARCHY
ROOT Hips
{
    OFFSET 0.0 0.0 0.0
    CHANNELS 6 Xposition Yposition Zposition Zrotation Xrotation Yrotation
    JOINT Spine
    {
        OFFSET 0.0 5.0 0.0
        CHANNELS 3 Zrotation Xrotation Yrotation
        JOINT Chest
        {
            OFFSET 0.0 5.0 0.0
            CHANNELS 3 Zrotation Xrotation Yrotation
            JOINT Neck
            {
                OFFSET 0.0 8.0 0.0
                CHANNELS 3 Zrotation Xrotation Yrotation
                JOINT Head
                {
                    OFFSET 0.0 5.0 0.0
                    CHANNELS 3 Zrotation Xrotation Yrotation
                    End Site
                    {
                        OFFSET 0.0 3.0 0.0
                    }
                }
            }
            JOINT LeftShoulder
            {
                OFFSET -5.0 0.0 0.0
                CHANNELS 3 Zrotation Xrotation Yrotation
                JOINT LeftArm
                {
                    OFFSET 0.0 -10.0 0.0
                    CHANNELS 3 Zrotation Xrotation Yrotation
                    JOINT LeftForeArm
                    {
                        OFFSET 0.0 -10.0 0.0
                        CHANNELS 3 Zrotation Xrotation Yrotation
                        End Site
                        {
                            OFFSET 0.0 -3.0 0.0
                        }
                    }
                }
            }
        }
    }
}

MOTION
Frames: 44
Frame Time: 0.033333
960.000000 445.000000 111.327135 0.000000 0.000000 0.000000 0.000000 0.000000 0.000000 23.025492 16.693542 0.000000 180.000000 6.032722 0.000000 21.801409 -10.854110 -0.000000 158.198591 -9.398164 30.000000 15.945396 -3.206747 0.000000 18.000000 0.151663 0.000000
1691.525230 140.756605 92.699671 0.000000 0.000000 0.000000 0.000000 0.000000 0.000000 -163.376529 0.790265 4.973798 16.623471 2.375141 4.973798 -171.853121 -3.377163 3.759997 99.744051 -5.771302 29.763441 -171.126653 -3.313525 -3.759997 0.673538 0.442985 0.313953
1636.048050 128.802021 116.173131 0.000000 0.000000 0.000000 0.000000 0.000000 0.000000 157.904128 -20.210814 9.635073 -22.095872 -7.587413 9.635073 -171.936471 -3.608356 7.460697 -143.675701 -2.202842 29.057495 -173.500805 -3.907394 -7.460697 0.570999 0.468250 0.626666
1578.156967 80.474526 108.167775 0.000000 0.000000 0.000000 0.000000 0.000000 0.000000 -139.519796 -8.896836 13.690942 40.480204 -0.223496 13.690942 -174.507724 -3.615237 11.043737 119.111399 12.259242 27.893295 -173.607258 -4.529734 -11.043737 0.461920 0.505896 0.936907
960.418757 444.998421 128.938884 0.000000 0.000000 0.000000 0.000000 0.000000 0.000000 25.077893 -14.384155 16.886559 180.000000 8.359692 16.886559 23.861935 2.506062 14.452610 156.138065 15.877895 26.289200 17.903699 -12.092234 -14.452610 18.000000 0.710352 1.243449
960.523360 444.997533 113.617634 0.000000 0.000000 0.000000 0.000000 0.000000 0.000000 25.638906 37.887610 19.021130 180.000000 -17.853757 19.021130 24.425035 5.810532 17.633558 155.574965 -8.774798 24.270510 18.452907 6.964107 -17.633558 18.000000 -1.022522 1.545085
960.627905 444.996447 142.923137 0.000000 0.000000 0.000000 0.000000 0.000000 0.000000 26.219073 -2.858521 19.960535 180.000000 -3.208835 19.960535 25.006291 6.629359 20.536413 154.993709 -8.138905 21.869059 19.024920 -2.646020 -20.536413 18.000000 0.494086 1.840623
1126.242828 420.359820 144.243931 0.000000 0.000000 0.000000 0.000000 0.000000 0.000000 31.410514 4.992124 19.645745 -148.589486 -1.454128 19.645745 32.280463 -2.756166 23.115397 -131.603972 1.318911 19.122720 45.585331 -2.100588 -23.115397 -13.449727 0.121740 2.128896
1257.895088 650.549197 132.347688 0.000000 0.000000 0.000000 0.000000 0.000000 0.000000 25.073180 8.790437 18.096541 -154.926820 17.747257 18.096541 46.260945 -3.130290 25.329838 -154.651428 -5.395879 16.074804 27.339487 5.062060 -25.329838 -13.619892 0.440895 2.408768
960.941083 444.992008 141.400515 0.000000 0.000000 0.000000 0.000000 0.000000 0.000000 28.072001 -22.454118 15.410265 180.000000 -4.751638 15.410265 26.849221 21.989266 27.144812 153.150779 9.424728 12.773379 20.864045 -0.081637 -27.144812 18.000000 0.628479 2.679134
1163.815842 547.748709 143.221372 0.000000 0.000000 0.000000 0.000000 0.000000 0.000000 117.162728 0.913341 11.755705 -62.837272 -7.942177 11.755705 102.363764 6.615684 28.531695 -47.376450 3.816826 9.270510 104.768601 -1.073568 -28.531695 -6.003489 -0.368043 2.938926
961.149372 444.988063 140.479040 0.000000 0.000000 0.000000 0.000000 0.000000 0.000000 29.395983 37.803920 7.362491 180.000000 -23.116789 7.362491 28.146217 21.619652 29.468618 151.853783 -2.659788 5.621439 22.170006 -10.755080 -29.468618 18.000000 -0.204485 3.187120
1136.717377 590.104480 143.545826 0.000000 0.000000 0.000000 0.000000 0.000000 0.000000 115.752126 9.634836 2.506665 -64.247874 -7.009980 2.506665 73.638146 3.307141 29.940802 -21.842452 -3.535017 1.883716 75.369282 -1.449893 -29.940802 -6.767207 0.316806 3.422736
1163.079758 634.077559 141.963143 0.000000 0.000000 0.000000 0.000000 0.000000 0.000000 132.174340 -1.499474 -2.506665 -47.825660 1.400239 -2.506665 94.255711 -2.509134 29.940802 -149.364979 -7.134766 -1.883716 30.021641 5.448273 -29.940802 -5.096180 0.285801 3.644843
961.460830 444.980668 136.822474 0.000000 0.000000 0.000000 0.000000 0.000000 0.000000 31.497152 2.535347 -7.362491 180.000000 8.666130 -7.362491 30.152455 -7.385915 29.468618 149.847545 -14.638420 -5.621439 24.175589 15.301303 -29.468618 18.000000 -0.910520 3.852566
1097.449951 565.089898 152.794447 0.000000 0.000000 0.000000 0.000000 0.000000 0.000000 -119.219568 4.270747 -11.755705 60.780432 -4.309770 -11.755705 -150.180642 -6.484597 28.531695 48.804955 -2.585147 -9.270510 -149.874178 -5.905238 -28.531695 2.713854 0.497549 4.045085
1114.140244 528.302071 151.161079 0.000000 0.000000 0.000000 0.000000 0.000000 0.000000 -142.671523 6.290962 -15.410265 37.328477 -7.443382 -15.410265 -177.395681 7.473951 27.144812 34.687329 1.546226 -12.773379 161.894167 -0.047659 -27.144812 -0.910956 -0.273422 4.221640
1116.433640 479.728639 151.088047 0.000000 0.000000 0.000000 0.000000 0.000000 0.000000 -102.267481 -10.124221 -18.096541 77.732519 6.825725 -18.096541 -163.695626 -1.182855 25.329838 38.575767 4.026936 -16.074804 -176.001122 -0.547964 -25.329838 0.706594 -0.027947 4.381533
1135.931282 466.493965 138.254863 0.000000 0.000000 0.000000 0.000000 0.000000 0.000000 -112.868406 -0.412735 -19.645745 67.131594 6.409827 -19.645745 -159.517862 -3.486725 23.115397 36.204678 -1.136142 -19.122720 -154.426613 -5.716531 -23.115397 2.428729 0.557428 4.524135
1141.618767 467.420679 133.537539 0.000000 0.000000 0.000000 0.000000 0.000000 0.000000 -123.086385 -6.265555 -19.960535 56.913615 -3.448683 -19.960535 -154.885724 -1.908822 20.536413 36.481623 1.567116 -21.869059 -153.965441 -6.543802 -20.536413 2.446728 0.553280 4.648882
1150.647926 469.370956 137.852514 0.000000 0.000000 0.000000 0.000000 0.000000 0.000000 -43.953779 -44.505203 -19.021130 136.046221 -24.381258 -19.021130 -154.327268 -5.671530 17.633558 60.745168 1.427491 -24.270510 -153.350642 -5.989811 -17.633558 2.386216 0.611320 4.755283
1151.529922 496.420240 147.588541 0.000000 0.000000 0.000000 0.000000 0.000000 0.000000 -116.362129 9.669128 -16.886559 63.637871 -8.782495 -16.886559 -149.081043 1.190477 14.452610 35.941860 -2.228954 -26.289200 -156.847177 -1.219317 -14.452610 2.056513 0.093163 4.842916
1148.402367 515.713574 156.643509 0.000000 0.000000 0.000000 0.000000 0.000000 0.000000 -118.252650 6.487719 -13.690942 61.747350 -2.954266 -13.690942 -138.082896 -3.876444 11.043737 -156.312677 -7.243881 -27.893295 21.649626 10.863207 -11.043737 2.962417 -0.413474 4.911436
1175.363617 533.368646 141.953962 0.000000 0.000000 0.000000 0.000000 0.000000 0.000000 -95.476638 -11.035499 -9.635073 84.523362 0.161317 -9.635073 -113.907461 -2.947326 7.460697 -155.995907 -6.992107 -29.057495 12.512064 9.001071 -7.460697 -16.748794 -0.900107 4.960574
1199.533310 485.991104 120.507381 0.000000 0.000000 0.000000 0.000000 0.000000 0.000000 -100.003195 -6.224637 -4.973798 79.996805 1.998057 -4.973798 -86.083188 0.629905 3.759997 38.843754 0.723978 -29.763441 -106.539452 0.718165 -3.759997 6.197806 -0.305728 4.990134
962.588190 444.938442 127.739067 0.000000 0.000000 0.000000 0.000000 0.000000 0.000000 39.579754 3.590747 -0.000000 180.000000 -0.436653 -0.000000 36.680773 -14.641801 0.000000 143.319227 1.578518 -30.000000 29.388385 -14.756882 -0.000000 18.000000 0.651039 5.000000
1142.094727 445.716287 111.106047 0.000000 0.000000 0.000000 0.000000 0.000000 0.000000 -140.228454 -18.583337 4.973798 39.771546 -19.668178 4.973798 -156.118008 -5.462710 -3.759997 3.479189 5.222248 -29.763441 -158.005660 -5.993981 3.759997 2.150019 0.533899 4.990134
1164.005928 424.847746 121.463113 0.000000 0.000000 0.000000 0.000000 0.000000 0.000000 -84.241076 40.636041 9.635073 95.758924 -32.245203 9.635073 -156.181584 -5.705959 -7.460697 166.928360 -14.759955 -29.057495 -154.947270 -5.764618 7.460697 2.644196 0.585742 4.960574
1124.208755 418.286655 109.511454 0.000000 0.000000 0.000000 0.000000 0.000000 0.000000 -117.427077 -35.911230 13.690942 62.572923 24.107085 13.690942 -155.943063 -5.348449 -11.043737 14.023837 25.524558 -27.893295 -157.382674 -5.769148 11.043737 2.188130 0.596176 4.911436
962.990408 444.917226 109.493211 0.000000 0.000000 0.000000 0.000000 0.000000 0.000000 42.110883 4.621144 16.886559 180.000000 -2.697498 16.886559 37.946959 -9.442741 -14.452610 142.053041 1.532852 -26.289200 29.293612 -3.053946 14.452610 18.000000 -0.446130 4.842916
963.090170 444.911436 104.839983 0.000000 0.000000 0.000000 0.000000 0.000000 0.000000 42.659200 37.555122 19.021130 180.000000 -7.925998 19.021130 38.119107 2.583886 -17.633558 141.880893 -8.073385 -24.270510 29.068887 -13.529710 17.633558 18.000000 1.807826 4.755283
1186.646461 396.272757 98.029826 0.000000 0.000000 0.000000 0.000000 0.000000 0.000000 -72.847419 -2.743819 19.960535 107.152581 -19.421256 19.960535 -156.703603 -4.014513 -20.536413 178.447294 -3.674585 -21.869059 -157.212393 -4.819271 20.536413 1.964058 0.472040 4.648882
1313.051605 426.636125 85.103040 0.000000 0.000000 0.000000 0.000000 0.000000 0.000000 90.994869 -28.164749 19.645745 -89.005131 28.239568 19.645745 -160.515303 -4.608794 -23.115397 -153.248861 10.330578 -19.122720 -159.640525 -5.532750 23.115397 0.000000 0.000000 0.000000
1347.999344 420.772226 82.405170 0.000000 0.000000 0.000000 0.000000 0.000000 0.000000 90.154351 -4.914135 18.096541 -89.845649 5.364621 18.096541 -162.053401 -4.125757 -25.329838 -136.198880 7.134177 -16.074804 -160.991694 -5.472362 25.329838 0.000000 0.000000 0.000000
1344.315948 421.031681 84.296331 0.000000 0.000000 0.000000 0.000000 0.000000 0.000000 69.757587 -8.054283 15.410265 -110.242413 -7.087897 15.410265 25.616746 1.350828 -27.144812 -157.821005 -3.824372 -12.773379 17.214985 3.257606 27.144812 -16.704706 -0.090127 4.221640
1350.307617 440.309436 90.524619 0.000000 0.000000 0.000000 0.000000 0.000000 0.000000 71.124018 0.411572 11.755705 -108.875982 -6.007786 11.755705 42.739987 4.667566 -28.531695 -142.315466 0.623419 -9.270510 16.600926 -1.504672 28.531695 -16.660102 -0.036869 4.045085
1357.685051 430.688889 76.669509 0.000000 0.000000 0.000000 0.000000 0.000000 0.000000 77.656077 -5.686165 7.362491 -102.343923 11.035428 7.362491 39.407151 -1.551458 -29.468618 -136.343173 0.810798 -5.621439 22.144452 3.226169 29.468618 -16.305135 -0.065511 3.852566
1369.482193 445.909406 63.013253 0.000000 0.000000 0.000000 0.000000 0.000000 0.000000 88.051188 14.490816 2.506665 -91.948812 -21.395562 2.506665 -161.283973 -3.196788 -29.940802 -119.799169 -1.171194 -1.883716 -164.575400 -4.670150 29.940802 1.401013 0.405097 3.644843
963.875156 444.858159 59.991341 0.000000 0.000000 0.000000 0.000000 0.000000 0.000000 45.304844 -26.423799 -2.506665 180.000000 11.354200 -2.506665 37.252439 6.901756 -29.940802 142.747561 2.991485 1.883716 25.146244 1.677958 29.940802 18.000000 -0.412663 3.422736
963.971479 444.850633 85.899589 0.000000 0.000000 0.000000 0.000000 0.000000 0.000000 45.383640 39.036008 -7.362491 180.000000 -1.144110 -7.362491 36.882310 -16.416309 -29.468618 143.117690 0.863661 5.621439 24.499789 -6.845267 29.468618 18.000000 -0.498226 3.187120
1336.629524 469.010178 86.698706 0.000000 0.000000 0.000000 0.000000 0.000000 0.000000 -72.390177 14.535909 -11.755705 107.609823 -9.780306 -11.755705 -158.649984 -2.398573 -28.531695 2.583425 -0.201688 9.270510 -39.658551 3.581898 28.531695 10.837181 -0.498034 2.938926
1311.966934 518.219100 53.408423 0.000000 0.000000 0.000000 0.000000 0.000000 0.000000 -63.565072 70.272761 -15.410265 116.434928 -58.718786 -15.410265 -14.840750 -3.555191 -27.144812 -158.549348 -3.611400 12.773379 17.488774 2.385443 27.144812 7.174982 -2.100442 2.679134
964.257793 444.826908 48.095644 0.000000 0.000000 0.000000 0.000000 0.000000 0.000000 45.262206 28.533655 -18.096541 180.000000 -15.420604 -18.096541 35.497192 -1.107803 -25.329838 144.502808 -6.398764 16.074804 22.522929 -3.561292 25.329838 18.000000 0.447442 2.408768
1275.921364 516.836239 46.526159 0.000000 0.000000 0.000000 0.000000 0.000000 0.000000 85.186295 1.197228 -19.645745 -94.813705 2.546168 -19.645745 52.470689 -1.865634 -23.115397 -44.513683 0.529504 19.122720 50.867598 -4.156185 23.115397 -8.717188 1.598323 2.128896
